#!OML:ASF H:\Terrain\Patient Classification 1\PLAYGROUND\JustinFriday\JustinFriday.ASF
:FULLY-SPECIFIED
:DEGREES
1156
root -6.36766 18.4118 12.4203 -43.964 -20.2211 13.9632
lowerback 22.324 5.36817 1.23954
upperback -5.3229 6.48771 -6.46639
thorax -17.4591 2.26022 -10.3053
lowerneck 20.4821 -11.2428 17.4795
upperneck 21.1069 -11.1184 -9.56818
head 1.96093 -4.64929 -5.25648
rclavicle -6.44062e-014 2.38542e-015
rhumerus 49.5471 -1.10169 -80.6915
rradius 88.5258
rwrist -408.857
rhand -4.44864 -34.8636
rfingers 7.12502
rthumb 21.3231 -63.7105
lclavicle -6.44062e-014 2.38542e-015
lhumerus 31.4409 -29.622 90.4251
lradius 91.7785
lwrist 15.1087
lhand -24.4794 -4.67457
lfingers 7.12502
lthumb 2.01434 25.2957
rfemur -7.90823 -14.588 7.26881
rtibia 98.7878
rfoot 1.62694 -4.58189
rtoes 7.32964
lfemur -9.09917 0.624734 -0.481553
ltibia 94.3783
lfoot 1.95454 -12.09
ltoes -7.80497
1157
root -6.23258 18.4078 12.4402 -44.5594 -19.0865 15.6988
lowerback 23.1983 5.15991 -1.85317
upperback -5.76604 5.24664 -6.11446
thorax -19.0158 1.96728 -7.89194
lowerneck 21.1466 -10.6054 16.3215
upperneck 21.498 -10.2953 -10.5379
head 2.03787 -4.32141 -5.45288
rclavicle 1.33186e-013 5.40694e-014
rhumerus 50.3166 0.78725 -80.6292
rradius 87.4372
rwrist -410.008
rhand -4.50273 -34.7169
rfingers 7.12502
rthumb 21.2711 -63.5697
lclavicle 1.33186e-013 5.40694e-014
lhumerus 30.379 -27.5343 90.7244
lradius 91.8644
lwrist 14.9448
lhand -24.5119 -5.97536
lfingers 7.12502
lthumb 1.98299 23.9952
rfemur -7.09952 -15.1296 4.818
rtibia 98.9842
rfoot 1.68535 -3.97394
rtoes 7.16944
lfemur -8.45401 0.12694 -2.84489
ltibia 94.2232
lfoot 2.2778 -11.1455
ltoes -5.81055
1158
root -6.09993 18.4207 12.4472 -44.597 -18.5547 16.7881
lowerback 23.7718 4.91232 -4.01736
upperback -6.14479 4.24771 -5.58872
thorax -20.1171 1.7832 -5.80494
lowerneck 20.743 -9.4225 14.861
upperneck 22.5633 -9.03951 -10.817
head 2.5721 -3.79892 -5.48021
rclavicle -1.55052e-014 -5.68524e-014
rhumerus 50.104 2.77671 -80.7999
rradius 87.7439
rwrist -410.532
rhand -4.70032 -34.8158
rfingers 7.12502
rthumb 21.0813 -63.6898
lclavicle -1.55052e-014 -5.68524e-014
lhumerus 29.7613 -25.6424 90.9369
lradius 92.1384
lwrist 14.7616
lhand -24.0967 -7.66391
lfingers 7.12502
lthumb 2.38396 22.3025
rfemur -6.90843 -15.5404 3.68664
rtibia 99.2069
rfoot 1.43938 -3.75548
rtoes 8.46842
lfemur -8.218 -0.203445 -4.05948
ltibia 94.1779
lfoot 2.94048 -10.7508
ltoes -4.07488
1159
root -5.96593 18.4265 12.4465 -44.1788 -18.554 17.3205
lowerback 24.0358 4.7844 -5.2128
upperback -6.50622 3.73395 -5.0779
thorax -20.8688 1.73663 -4.41341
lowerneck 19.895 -9.04408 14.1038
upperneck 23.357 -8.72267 -11.52
head 2.92002 -3.73359 -5.66685
rclavicle 4.24405e-014 4.49253e-014
rhumerus 50.0086 3.84015 -80.6468
rradius 88.0235
rwrist -411.098
rhand -5.00289 -34.7278
rfingers 7.12502
rthumb 20.7906 -63.634
lclavicle 4.24405e-014 4.49253e-014
lhumerus 29.4709 -24.5549 91.1998
lradius 92.4867
lwrist 14.4174
lhand -24.082 -7.94979
lfingers 7.12502
lthumb 2.3982 22.0165
rfemur -7.28587 -15.8575 3.78029
rtibia 99.4553
rfoot 1.06012 -4.04435
rtoes 8.87138
lfemur -8.34039 -0.273996 -4.18482
ltibia 94.3363
lfoot 3.67239 -10.9485
ltoes -1.78579
1160
root -5.83612 18.4283 12.4424 -43.3336 -19.5369 16.9078
lowerback 23.8119 4.71143 -4.53325
upperback -6.72306 3.93623 -4.7497
thorax -20.9916 1.76393 -4.49822
lowerneck 19.1169 -9.09315 14.3513
upperneck 23.8303 -8.80091 -11.9882
head 3.10968 -3.78246 -5.8954
rclavicle 1.04362e-013 6.98728e-014
rhumerus 49.9995 3.54292 -80.51
rradius 88.171
rwrist -411.439
rhand -5.09736 -34.3897
rfingers 7.12502
rthumb 20.6999 -63.3057
lclavicle 1.04362e-013 6.98728e-014
lhumerus 29.6761 -24.7599 91.2379
lradius 92.5733
lwrist 13.8484
lhand -24.752 -6.67083
lfingers 7.12502
lthumb 1.75112 23.3017
rfemur -7.84194 -15.9951 5.85038
rtibia 99.5359
rfoot 0.974688 -5.19379
rtoes 9.19908
lfemur -8.58511 -0.0341531 -2.39945
ltibia 94.6315
lfoot 3.8617 -11.2806
ltoes -0.204393
